<?xml version="1.0" encoding="UTF-8" standalone="no"?>
<!DOCTYPE svg PUBLIC "-//W3C//DTD SVG 1.1//EN"
 "http://www.w3.org/Graphics/SVG/1.1/DTD/svg11.dtd">
<!-- Generated by graphviz version 2.40.1 (20161225.0304)
 -->
<!-- Title: G Pages: 1 -->
<svg width="602pt" height="249pt"
 viewBox="0.00 0.00 602.00 248.61" xmlns="http://www.w3.org/2000/svg" xmlns:xlink="http://www.w3.org/1999/xlink">
<g id="graph0" class="graph" transform="scale(1 1) rotate(0) translate(4 244.609)">
<title>G</title>
<polygon fill="#ffffff" stroke="transparent" points="-4,4 -4,-244.609 598,-244.609 598,4 -4,4"/>
<!-- 1 -->
<g id="node1" class="node">
<title>1</title>
<ellipse fill="none" stroke="#000000" cx="297" cy="-213" rx="27" ry="18"/>
<text text-anchor="middle" x="297" y="-208.8" font-family="Times,serif" font-size="14.00" fill="#000000">1</text>
</g>
<!-- 2 -->
<g id="node2" class="node">
<title>2</title>
<ellipse fill="none" stroke="#000000" cx="387" cy="-122" rx="27" ry="18"/>
<text text-anchor="middle" x="387" y="-117.8" font-family="Times,serif" font-size="14.00" fill="#000000">2</text>
</g>
<!-- 1&#45;&gt;2 -->
<g id="edge1" class="edge">
<title>1&#45;&gt;2</title>
<path fill="none" stroke="#000000" d="M312.2673,-197.5631C328.9175,-180.7279 355.3974,-153.9537 371.9582,-137.2089"/>
</g>
<!-- 3 -->
<g id="node3" class="node">
<title>3</title>
<ellipse fill="none" stroke="#000000" cx="477" cy="-95" rx="27" ry="18"/>
<text text-anchor="middle" x="477" y="-90.8" font-family="Times,serif" font-size="14.00" fill="#000000">3</text>
</g>
<!-- 1&#45;&gt;3 -->
<g id="edge2" class="edge">
<title>1&#45;&gt;3</title>
<path fill="none" stroke="#000000" d="M319.3671,-202.5065C343.5295,-190.7786 382.7601,-170.5833 414,-149 431.1854,-137.1268 449.1144,-121.3797 461.4312,-109.9561"/>
</g>
<!-- 4 -->
<g id="node4" class="node">
<title>4</title>
<ellipse fill="none" stroke="#000000" cx="567" cy="-168" rx="27" ry="18"/>
<text text-anchor="middle" x="567" y="-163.8" font-family="Times,serif" font-size="14.00" fill="#000000">4</text>
</g>
<!-- 1&#45;&gt;4 -->
<g id="edge3" class="edge">
<title>1&#45;&gt;4</title>
<path fill="none" stroke="#000000" d="M318.8801,-223.593C330.7449,-228.7523 345.8415,-234.3945 360,-237 383.6037,-241.3437 390.5365,-242.0461 414,-237 464.7076,-226.0948 518.8692,-196.9959 547.1666,-180.2762"/>
</g>
<!-- 5 -->
<g id="node5" class="node">
<title>5</title>
<ellipse fill="none" stroke="#000000" cx="477" cy="-168" rx="27" ry="18"/>
<text text-anchor="middle" x="477" y="-163.8" font-family="Times,serif" font-size="14.00" fill="#000000">5</text>
</g>
<!-- 1&#45;&gt;5 -->
<g id="edge4" class="edge">
<title>1&#45;&gt;5</title>
<path fill="none" stroke="#000000" d="M322.0083,-220.0726C346.2672,-225.6589 383.7435,-230.874 414,-220 433.8859,-212.8531 451.9653,-196.4101 463.6045,-183.9133"/>
</g>
<!-- 2&#45;&gt;3 -->
<g id="edge9" class="edge">
<title>2&#45;&gt;3</title>
<path fill="none" stroke="#000000" d="M412.07,-114.479C424.657,-110.7029 439.8509,-106.1447 452.3755,-102.3874"/>
</g>
<!-- 2&#45;&gt;5 -->
<g id="edge10" class="edge">
<title>2&#45;&gt;5</title>
<path fill="none" stroke="#000000" d="M408.7865,-133.1353C422.9367,-140.3677 441.304,-149.7554 455.4141,-156.9672"/>
</g>
<!-- 3&#45;&gt;4 -->
<g id="edge11" class="edge">
<title>3&#45;&gt;4</title>
<path fill="none" stroke="#000000" d="M494.3529,-109.0751C510.2899,-122.0018 533.7803,-141.0551 549.7004,-153.9681"/>
</g>
<!-- 5&#45;&gt;4 -->
<g id="edge19" class="edge">
<title>5&#45;&gt;4</title>
<path fill="none" stroke="#000000" d="M504.003,-168C515.2905,-168 528.3867,-168 539.705,-168"/>
</g>
<!-- 6 -->
<g id="node6" class="node">
<title>6</title>
<ellipse fill="none" stroke="#000000" cx="207" cy="-125" rx="27" ry="18"/>
<text text-anchor="middle" x="207" y="-120.8" font-family="Times,serif" font-size="14.00" fill="#000000">6</text>
</g>
<!-- 6&#45;&gt;1 -->
<g id="edge5" class="edge">
<title>6&#45;&gt;1</title>
<path fill="none" stroke="#000000" d="M222.2673,-139.928C238.8172,-156.1101 265.0787,-181.7881 281.6578,-197.9988"/>
</g>
<!-- 6&#45;&gt;2 -->
<g id="edge6" class="edge">
<title>6&#45;&gt;2</title>
<path fill="none" stroke="#000000" d="M234.3381,-124.5444C268.3667,-123.9772 326.1212,-123.0146 359.9944,-122.4501"/>
</g>
<!-- 6&#45;&gt;3 -->
<g id="edge7" class="edge">
<title>6&#45;&gt;3</title>
<path fill="none" stroke="#000000" d="M232.2255,-118.4926C262.3746,-111.0796 314.4688,-99.4217 360,-95 390.7304,-92.0156 426.2155,-92.5752 449.9755,-93.5224"/>
</g>
<!-- 6&#45;&gt;5 -->
<g id="edge8" class="edge">
<title>6&#45;&gt;5</title>
<path fill="none" stroke="#000000" d="M233.012,-130.1942C244.3536,-132.3969 257.816,-134.9281 270,-137 334.6623,-147.9958 411.0476,-158.897 450.4788,-164.3706"/>
</g>
<!-- 7 -->
<g id="node7" class="node">
<title>7</title>
<ellipse fill="none" stroke="#000000" cx="27" cy="-125" rx="27" ry="18"/>
<text text-anchor="middle" x="27" y="-120.8" font-family="Times,serif" font-size="14.00" fill="#000000">7</text>
</g>
<!-- 7&#45;&gt;1 -->
<g id="edge13" class="edge">
<title>7&#45;&gt;1</title>
<path fill="none" stroke="#000000" d="M50.3779,-134.252C80.2081,-145.8962 133.5167,-166.1654 180,-181 211.0956,-190.9238 247.4277,-200.5615 271.2558,-206.6215"/>
</g>
<!-- 7&#45;&gt;3 -->
<g id="edge14" class="edge">
<title>7&#45;&gt;3</title>
<path fill="none" stroke="#000000" d="M38.9314,-108.6584C65.1884,-74.7757 131.6685,0 207,0 207,0 207,0 297,0 364.8438,0 432.1719,-53.4375 461.5957,-80.1563"/>
</g>
<!-- 7&#45;&gt;6 -->
<g id="edge12" class="edge">
<title>7&#45;&gt;6</title>
<path fill="none" stroke="#000000" d="M53.9606,-127.0887C65.1085,-127.8543 78.1697,-128.6248 90,-129 113.9879,-129.7608 120.0121,-129.7608 144,-129 155.8303,-128.6248 168.8915,-127.8543 180.0394,-127.0887"/>
</g>
<!-- 8 -->
<g id="node8" class="node">
<title>8</title>
<ellipse fill="none" stroke="#000000" cx="117" cy="-102" rx="27" ry="18"/>
<text text-anchor="middle" x="117" y="-97.8" font-family="Times,serif" font-size="14.00" fill="#000000">8</text>
</g>
<!-- 7&#45;&gt;8 -->
<g id="edge15" class="edge">
<title>7&#45;&gt;8</title>
<path fill="none" stroke="#000000" d="M52.5497,-118.4706C64.8142,-115.3364 79.4658,-111.5921 91.698,-108.4661"/>
</g>
<!-- 8&#45;&gt;1 -->
<g id="edge17" class="edge">
<title>8&#45;&gt;1</title>
<path fill="none" stroke="#000000" d="M133.4582,-116.4925C145.8035,-127.0015 163.3681,-141.2046 180,-152 211.32,-172.3291 250.189,-191.5004 274.2963,-202.7467"/>
</g>
<!-- 8&#45;&gt;3 -->
<g id="edge18" class="edge">
<title>8&#45;&gt;3</title>
<path fill="none" stroke="#000000" d="M144.0304,-99.1667C196.2207,-94.0621 314.5013,-84.2727 414,-89 425.9623,-89.5683 439.1592,-90.7405 450.3708,-91.8991"/>
</g>
<!-- 8&#45;&gt;6 -->
<g id="edge16" class="edge">
<title>8&#45;&gt;6</title>
<path fill="none" stroke="#000000" d="M142.5497,-108.5294C154.8142,-111.6636 169.4658,-115.4079 181.698,-118.5339"/>
</g>
</g>
</svg>
