<?xml version="1.0" encoding="UTF-8" standalone="no"?>
<!DOCTYPE svg PUBLIC "-//W3C//DTD SVG 1.1//EN"
 "http://www.w3.org/Graphics/SVG/1.1/DTD/svg11.dtd">
<!-- Generated by graphviz version 2.40.1 (20161225.0304)
 -->
<!-- Title: G Pages: 1 -->
<svg width="614pt" height="152pt"
 viewBox="0.00 0.00 614.43 152.00" xmlns="http://www.w3.org/2000/svg" xmlns:xlink="http://www.w3.org/1999/xlink">
<g id="graph0" class="graph" transform="scale(1 1) rotate(0) translate(4 148)">
<title>G</title>
<polygon fill="#ffffff" stroke="transparent" points="-4,4 -4,-148 610.4319,-148 610.4319,4 -4,4"/>
<!-- Customer -->
<g id="node1" class="node">
<title>Customer</title>
<ellipse fill="none" stroke="#000000" cx="57.5" cy="-72" rx="57.5" ry="57.5"/>
<text text-anchor="middle" x="57.5" y="-67.8" font-family="Times,serif" font-size="14.00" fill="#000000">Customer</text>
</g>
<!-- Relay 1 -->
<g id="node2" class="node">
<title>Relay 1</title>
<polygon fill="none" stroke="#000000" points="210.858,-144 151.1417,-36 270.5743,-36 210.858,-144"/>
<text text-anchor="middle" x="210.858" y="-67.8" font-family="Times,serif" font-size="14.00" fill="#000000">Relay 1</text>
</g>
<!-- Customer&#45;&gt;Relay 1 -->
<g id="edge1" class="edge">
<title>Customer&#45;&gt;Relay 1</title>
<path fill="none" stroke="#000000" d="M115.0412,-72C129.9506,-72 145.8914,-72 160.4065,-72"/>
<polygon fill="#000000" stroke="#000000" points="160.6887,-75.5001 170.6886,-72 160.6886,-68.5001 160.6887,-75.5001"/>
</g>
<!-- Relay 2 -->
<g id="node3" class="node">
<title>Relay 2</title>
<polygon fill="none" stroke="#000000" points="366.5739,-144 306.8576,-36 426.2902,-36 366.5739,-144"/>
<text text-anchor="middle" x="366.5739" y="-67.8" font-family="Times,serif" font-size="14.00" fill="#000000">Relay 2</text>
</g>
<!-- Relay 1&#45;&gt;Relay 2 -->
<g id="edge2" class="edge">
<title>Relay 1&#45;&gt;Relay 2</title>
<path fill="none" stroke="#000000" d="M250.9587,-72C270.9383,-72 295.2948,-72 316.4907,-72"/>
<polygon fill="#000000" stroke="#000000" points="316.6091,-75.5001 326.6091,-72 316.609,-68.5001 316.6091,-75.5001"/>
</g>
<!-- Proxy -->
<g id="node4" class="node">
<title>Proxy</title>
<polygon fill="none" stroke="#000000" points="606.4319,-144 462.4319,-144 462.4319,0 606.4319,0 606.4319,-144"/>
<text text-anchor="middle" x="534.4319" y="-67.8" font-family="Times,serif" font-size="14.00" fill="#000000">Proxy</text>
</g>
<!-- Relay 2&#45;&gt;Proxy -->
<g id="edge3" class="edge">
<title>Relay 2&#45;&gt;Proxy</title>
<path fill="none" stroke="#000000" d="M406.7801,-72C420.4649,-72 436.3013,-72 452.0643,-72"/>
<polygon fill="#000000" stroke="#000000" points="452.3889,-75.5001 462.3889,-72 452.3888,-68.5001 452.3889,-75.5001"/>
</g>
</g>
</svg>
