<?xml version="1.0" encoding="UTF-8" standalone="no"?>
<!DOCTYPE svg PUBLIC "-//W3C//DTD SVG 1.1//EN"
 "http://www.w3.org/Graphics/SVG/1.1/DTD/svg11.dtd">
<!-- Generated by graphviz version 2.40.1 (20161225.0304)
 -->
<!-- Title: G Pages: 1 -->
<svg width="531pt" height="318pt"
 viewBox="0.00 0.00 531.38 318.00" xmlns="http://www.w3.org/2000/svg" xmlns:xlink="http://www.w3.org/1999/xlink">
<g id="graph0" class="graph" transform="scale(1 1) rotate(0) translate(4 314)">
<title>G</title>
<polygon fill="#ffffff" stroke="transparent" points="-4,4 -4,-314 527.3807,-314 527.3807,4 -4,4"/>
<!-- Customer -->
<g id="node1" class="node">
<title>Customer</title>
<ellipse fill="none" stroke="#000000" cx="43" cy="-263" rx="43" ry="43"/>
<text text-anchor="middle" x="43" y="-258.8" font-family="Times,serif" font-size="14.00" fill="#000000">Customer</text>
</g>
<!-- Relay 1 -->
<g id="node2" class="node">
<title>Relay 1</title>
<polygon fill="none" stroke="#000000" points="182.8452,-310 122.1544,-239.5 243.5359,-239.5 182.8452,-310"/>
<text text-anchor="middle" x="182.8452" y="-258.8" font-family="Times,serif" font-size="14.00" fill="#000000">Relay 1</text>
</g>
<!-- Customer&#45;&gt;Relay 1 -->
<g id="edge1" class="edge">
<title>Customer&#45;&gt;Relay 1</title>
<path fill="none" stroke="#000000" d="M86.0993,-263C100.575,-263 116.8586,-263 131.8796,-263"/>
<polygon fill="#000000" stroke="#000000" points="132.0394,-266.5001 142.0393,-263 132.0393,-259.5001 132.0394,-266.5001"/>
</g>
<!-- Relay 2 -->
<g id="node3" class="node">
<title>Relay 2</title>
<polygon fill="none" stroke="#000000" points="340.5355,-310 279.8448,-239.5 401.2262,-239.5 340.5355,-310"/>
<text text-anchor="middle" x="340.5355" y="-258.8" font-family="Times,serif" font-size="14.00" fill="#000000">Relay 2</text>
</g>
<!-- Relay 1&#45;&gt;Relay 2 -->
<g id="edge2" class="edge">
<title>Relay 1&#45;&gt;Relay 2</title>
<path fill="none" stroke="#000000" d="M223.4543,-263C243.6873,-263 268.3526,-263 289.8173,-263"/>
<polygon fill="#000000" stroke="#000000" points="290.064,-266.5001 300.0639,-263 290.0639,-259.5001 290.064,-266.5001"/>
</g>
<!-- Rendezvous -->
<g id="node4" class="node">
<title>Rendezvous</title>
<polygon fill="none" stroke="#000000" points="523.3807,-250 437.3807,-250 437.3807,-164 523.3807,-164 523.3807,-250"/>
<polyline fill="none" stroke="#000000" points="449.3807,-250 437.3807,-238 "/>
<polyline fill="none" stroke="#000000" points="437.3807,-176 449.3807,-164 "/>
<polyline fill="none" stroke="#000000" points="511.3807,-164 523.3807,-176 "/>
<polyline fill="none" stroke="#000000" points="523.3807,-238 511.3807,-250 "/>
<text text-anchor="middle" x="480.3807" y="-202.8" font-family="Times,serif" font-size="14.00" fill="#000000">Rendezvous</text>
</g>
<!-- Relay 2&#45;&gt;Rendezvous -->
<g id="edge3" class="edge">
<title>Relay 2&#45;&gt;Rendezvous</title>
<path fill="none" stroke="#000000" d="M399.4371,-239.4133C408.8553,-235.6418 418.5472,-231.7608 427.8059,-228.0532"/>
<polygon fill="#000000" stroke="#000000" points="429.2858,-231.2308 437.268,-224.2642 426.6835,-224.7325 429.2858,-231.2308"/>
</g>
<!-- Relay 3 -->
<g id="node5" class="node">
<title>Relay 3</title>
<polygon fill="none" stroke="#000000" points="340.5355,-198 279.8448,-127.5 401.2262,-127.5 340.5355,-198"/>
<text text-anchor="middle" x="340.5355" y="-146.8" font-family="Times,serif" font-size="14.00" fill="#000000">Relay 3</text>
</g>
<!-- Relay 3&#45;&gt;Rendezvous -->
<g id="edge4" class="edge">
<title>Relay 3&#45;&gt;Rendezvous</title>
<path fill="none" stroke="#000000" d="M370.8798,-163.1512C387.5862,-169.8411 408.7872,-178.3309 428.0751,-186.0546"/>
<polygon fill="#000000" stroke="#000000" points="426.7774,-189.3051 437.3619,-189.7734 429.3797,-182.8068 426.7774,-189.3051"/>
</g>
<!-- Relay 4 -->
<g id="node6" class="node">
<title>Relay 4</title>
<polygon fill="none" stroke="#000000" points="182.8452,-198 122.1544,-127.5 243.5359,-127.5 182.8452,-198"/>
<text text-anchor="middle" x="182.8452" y="-146.8" font-family="Times,serif" font-size="14.00" fill="#000000">Relay 4</text>
</g>
<!-- Relay 4&#45;&gt;Relay 3 -->
<g id="edge5" class="edge">
<title>Relay 4&#45;&gt;Relay 3</title>
<path fill="none" stroke="#000000" d="M223.4543,-151C243.6873,-151 268.3526,-151 289.8173,-151"/>
<polygon fill="#000000" stroke="#000000" points="290.064,-154.5001 300.0639,-151 290.0639,-147.5001 290.064,-154.5001"/>
</g>
<!-- Service -->
<g id="node7" class="node">
<title>Service</title>
<polygon fill="none" stroke="#000000" points="225.8452,-86 139.8452,-86 139.8452,0 225.8452,0 225.8452,-86"/>
<text text-anchor="middle" x="182.8452" y="-38.8" font-family="Times,serif" font-size="14.00" fill="#000000">Service</text>
</g>
<!-- Service&#45;&gt;Relay 3 -->
<g id="edge6" class="edge">
<title>Service&#45;&gt;Relay 3</title>
<path fill="none" stroke="#000000" d="M225.9347,-72.5115C248.252,-87.7963 275.4182,-106.402 297.6987,-121.6617"/>
<polygon fill="#000000" stroke="#000000" points="295.7502,-124.5693 305.9784,-127.3323 299.7057,-118.794 295.7502,-124.5693"/>
</g>
</g>
</svg>
