<?xml version="1.0" encoding="UTF-8" standalone="no"?>
<!DOCTYPE svg PUBLIC "-//W3C//DTD SVG 1.1//EN"
 "http://www.w3.org/Graphics/SVG/1.1/DTD/svg11.dtd">
<!-- Generated by graphviz version 2.40.1 (20161225.0304)
 -->
<!-- Title: G Pages: 1 -->
<svg width="428pt" height="314pt"
 viewBox="0.00 0.00 427.70 314.00" xmlns="http://www.w3.org/2000/svg" xmlns:xlink="http://www.w3.org/1999/xlink">
<g id="graph0" class="graph" transform="scale(1 1) rotate(0) translate(4 310)">
<title>G</title>
<polygon fill="#ffffff" stroke="transparent" points="-4,4 -4,-310 423.7023,-310 423.7023,4 -4,4"/>
<!-- 0011 -->
<g id="node1" class="node">
<title>0011</title>
<ellipse fill="none" stroke="#000000" cx="210.9688" cy="-288" rx="27.4398" ry="18"/>
<text text-anchor="middle" x="210.9688" y="-283.8" font-family="Times,serif" font-size="14.00" fill="#000000">0011</text>
</g>
<!-- 1011 -->
<g id="node2" class="node">
<title>1011</title>
<ellipse fill="none" stroke="#000000" cx="302.2324" cy="-234" rx="27.4398" ry="18"/>
<text text-anchor="middle" x="302.2324" y="-229.8" font-family="Times,serif" font-size="14.00" fill="#000000">1011</text>
</g>
<!-- 0011&#45;&gt;1011 -->
<g id="edge1" class="edge">
<title>0011&#45;&gt;1011</title>
<path fill="none" stroke="#000000" d="M231.6779,-275.7466C246.6137,-266.9091 266.6882,-255.0312 281.6052,-246.2049"/>
</g>
<!-- 0111 -->
<g id="node3" class="node">
<title>0111</title>
<ellipse fill="none" stroke="#000000" cx="302.2324" cy="-180" rx="27.2929" ry="18"/>
<text text-anchor="middle" x="302.2324" y="-175.8" font-family="Times,serif" font-size="14.00" fill="#000000">0111</text>
</g>
<!-- 0011&#45;&gt;0111 -->
<g id="edge2" class="edge">
<title>0011&#45;&gt;0111</title>
<path fill="none" stroke="#000000" d="M227.1447,-273.4131C231.1148,-269.5348 235.2344,-265.2406 238.7625,-261 257.2106,-238.8264 256.3794,-229.2275 274.7625,-207 278.2572,-202.7745 282.3315,-198.4858 286.2555,-194.6078"/>
</g>
<!-- 1111 -->
<g id="node8" class="node">
<title>1111</title>
<ellipse fill="none" stroke="#000000" cx="392.7023" cy="-153" rx="27" ry="18"/>
<text text-anchor="middle" x="392.7023" y="-148.8" font-family="Times,serif" font-size="14.00" fill="#000000">1111</text>
</g>
<!-- 1011&#45;&gt;1111 -->
<g id="edge7" class="edge">
<title>1011&#45;&gt;1111</title>
<path fill="none" stroke="#000000" d="M318.826,-219.1434C335.2517,-204.437 360.2367,-182.0673 376.5183,-167.4899"/>
</g>
<!-- 0111&#45;&gt;1111 -->
<g id="edge32" class="edge">
<title>0111&#45;&gt;1111</title>
<path fill="none" stroke="#000000" d="M327.4333,-172.479C340.086,-168.7029 355.3593,-164.1447 367.9492,-160.3874"/>
</g>
<!-- 0110 -->
<g id="node4" class="node">
<title>0110</title>
<ellipse fill="none" stroke="#000000" cx="210.9688" cy="-72" rx="27.4398" ry="18"/>
<text text-anchor="middle" x="210.9688" y="-67.8" font-family="Times,serif" font-size="14.00" fill="#000000">0110</text>
</g>
<!-- 0110&#45;&gt;0111 -->
<g id="edge4" class="edge">
<title>0110&#45;&gt;0111</title>
<path fill="none" stroke="#000000" d="M227.1447,-86.5869C231.1148,-90.4652 235.2344,-94.7594 238.7625,-99 257.2106,-121.1736 256.3794,-130.7725 274.7625,-153 278.2572,-157.2255 282.3315,-161.5142 286.2555,-165.3922"/>
</g>
<!-- 1110 -->
<g id="node5" class="node">
<title>1110</title>
<ellipse fill="none" stroke="#000000" cx="302.2324" cy="-72" rx="27.2929" ry="18"/>
<text text-anchor="middle" x="302.2324" y="-67.8" font-family="Times,serif" font-size="14.00" fill="#000000">1110</text>
</g>
<!-- 0110&#45;&gt;1110 -->
<g id="edge3" class="edge">
<title>0110&#45;&gt;1110</title>
<path fill="none" stroke="#000000" d="M238.8468,-72C250.2743,-72 263.4617,-72 274.8387,-72"/>
</g>
<!-- 1110&#45;&gt;1111 -->
<g id="edge14" class="edge">
<title>1110&#45;&gt;1111</title>
<path fill="none" stroke="#000000" d="M318.4066,-86.4812C334.7722,-101.1337 359.9386,-123.6658 376.3631,-138.3711"/>
</g>
<!-- 1100 -->
<g id="node6" class="node">
<title>1100</title>
<ellipse fill="none" stroke="#000000" cx="210.9688" cy="-18" rx="27.4398" ry="18"/>
<text text-anchor="middle" x="210.9688" y="-13.8" font-family="Times,serif" font-size="14.00" fill="#000000">1100</text>
</g>
<!-- 1100&#45;&gt;1110 -->
<g id="edge5" class="edge">
<title>1100&#45;&gt;1110</title>
<path fill="none" stroke="#000000" d="M231.6779,-30.2534C246.7189,-39.1531 266.9712,-51.1362 281.9196,-59.9811"/>
</g>
<!-- 1101 -->
<g id="node7" class="node">
<title>1101</title>
<ellipse fill="none" stroke="#000000" cx="302.2324" cy="-126" rx="27.4398" ry="18"/>
<text text-anchor="middle" x="302.2324" y="-121.8" font-family="Times,serif" font-size="14.00" fill="#000000">1101</text>
</g>
<!-- 1100&#45;&gt;1101 -->
<g id="edge6" class="edge">
<title>1100&#45;&gt;1101</title>
<path fill="none" stroke="#000000" d="M227.1447,-32.5869C231.1148,-36.4652 235.2344,-40.7594 238.7625,-45 257.2106,-67.1736 256.3794,-76.7725 274.7625,-99 278.1719,-103.1224 282.1331,-107.3051 285.9682,-111.1077"/>
</g>
<!-- 1101&#45;&gt;1111 -->
<g id="edge13" class="edge">
<title>1101&#45;&gt;1111</title>
<path fill="none" stroke="#000000" d="M327.4333,-133.521C340.086,-137.2971 355.3593,-141.8553 367.9492,-145.6126"/>
</g>
<!-- 0001 -->
<g id="node9" class="node">
<title>0001</title>
<ellipse fill="none" stroke="#000000" cx="119.3813" cy="-234" rx="27.589" ry="18"/>
<text text-anchor="middle" x="119.3813" y="-229.8" font-family="Times,serif" font-size="14.00" fill="#000000">0001</text>
</g>
<!-- 0001&#45;&gt;0011 -->
<g id="edge10" class="edge">
<title>0001&#45;&gt;0011</title>
<path fill="none" stroke="#000000" d="M140.1639,-246.2534C155.1527,-255.0909 175.2984,-266.9688 190.2684,-275.7951"/>
</g>
<!-- 1001 -->
<g id="node10" class="node">
<title>1001</title>
<ellipse fill="none" stroke="#000000" cx="210.9688" cy="-234" rx="27.589" ry="18"/>
<text text-anchor="middle" x="210.9688" y="-229.8" font-family="Times,serif" font-size="14.00" fill="#000000">1001</text>
</g>
<!-- 0001&#45;&gt;1001 -->
<g id="edge8" class="edge">
<title>0001&#45;&gt;1001</title>
<path fill="none" stroke="#000000" d="M147.3582,-234C158.7211,-234 171.8178,-234 183.1632,-234"/>
</g>
<!-- 0101 -->
<g id="node11" class="node">
<title>0101</title>
<ellipse fill="none" stroke="#000000" cx="210.9688" cy="-126" rx="27.589" ry="18"/>
<text text-anchor="middle" x="210.9688" y="-121.8" font-family="Times,serif" font-size="14.00" fill="#000000">0101</text>
</g>
<!-- 0001&#45;&gt;0101 -->
<g id="edge9" class="edge">
<title>0001&#45;&gt;0101</title>
<path fill="none" stroke="#000000" d="M135.848,-219.1286C139.7279,-215.3253 143.7329,-211.1372 147.175,-207 165.6231,-184.8264 164.7269,-175.1736 183.175,-153 186.6171,-148.8628 190.6221,-144.6747 194.5021,-140.8714"/>
</g>
<!-- 1001&#45;&gt;1011 -->
<g id="edge12" class="edge">
<title>1001&#45;&gt;1011</title>
<path fill="none" stroke="#000000" d="M238.8468,-234C250.1694,-234 263.2199,-234 274.5251,-234"/>
</g>
<!-- 1001&#45;&gt;1101 -->
<g id="edge11" class="edge">
<title>1001&#45;&gt;1101</title>
<path fill="none" stroke="#000000" d="M227.4355,-219.1286C231.3154,-215.3253 235.3204,-211.1372 238.7625,-207 257.2106,-184.8264 256.3794,-175.2275 274.7625,-153 278.1719,-148.8776 282.1331,-144.6949 285.9682,-140.8923"/>
</g>
<!-- 0101&#45;&gt;0111 -->
<g id="edge21" class="edge">
<title>0101&#45;&gt;0111</title>
<path fill="none" stroke="#000000" d="M231.6779,-138.2534C246.7189,-147.1531 266.9712,-159.1362 281.9196,-167.9811"/>
</g>
<!-- 0101&#45;&gt;1101 -->
<g id="edge20" class="edge">
<title>0101&#45;&gt;1101</title>
<path fill="none" stroke="#000000" d="M238.8468,-126C250.1694,-126 263.2199,-126 274.5251,-126"/>
</g>
<!-- 1010 -->
<g id="node12" class="node">
<title>1010</title>
<ellipse fill="none" stroke="#000000" cx="210.9688" cy="-180" rx="27.589" ry="18"/>
<text text-anchor="middle" x="210.9688" y="-175.8" font-family="Times,serif" font-size="14.00" fill="#000000">1010</text>
</g>
<!-- 1010&#45;&gt;1011 -->
<g id="edge16" class="edge">
<title>1010&#45;&gt;1011</title>
<path fill="none" stroke="#000000" d="M231.6779,-192.2534C246.6137,-201.0909 266.6882,-212.9688 281.6052,-221.7951"/>
</g>
<!-- 1010&#45;&gt;1110 -->
<g id="edge15" class="edge">
<title>1010&#45;&gt;1110</title>
<path fill="none" stroke="#000000" d="M227.4355,-165.1286C231.3154,-161.3253 235.3204,-157.1372 238.7625,-153 257.2106,-130.8264 256.3794,-121.2275 274.7625,-99 278.2572,-94.7745 282.3315,-90.4858 286.2555,-86.6078"/>
</g>
<!-- 0010 -->
<g id="node13" class="node">
<title>0010</title>
<ellipse fill="none" stroke="#000000" cx="119.3813" cy="-180" rx="27.589" ry="18"/>
<text text-anchor="middle" x="119.3813" y="-175.8" font-family="Times,serif" font-size="14.00" fill="#000000">0010</text>
</g>
<!-- 0010&#45;&gt;0011 -->
<g id="edge19" class="edge">
<title>0010&#45;&gt;0011</title>
<path fill="none" stroke="#000000" d="M135.848,-194.8714C139.7279,-198.6747 143.7329,-202.8628 147.175,-207 165.6231,-229.1736 164.7269,-238.8264 183.175,-261 186.7031,-265.2406 190.8227,-269.5348 194.7928,-273.4131"/>
</g>
<!-- 0010&#45;&gt;0110 -->
<g id="edge18" class="edge">
<title>0010&#45;&gt;0110</title>
<path fill="none" stroke="#000000" d="M135.848,-165.1286C139.7279,-161.3253 143.7329,-157.1372 147.175,-153 165.6231,-130.8264 164.7269,-121.1736 183.175,-99 186.7031,-94.7594 190.8227,-90.4652 194.7928,-86.5869"/>
</g>
<!-- 0010&#45;&gt;1010 -->
<g id="edge17" class="edge">
<title>0010&#45;&gt;1010</title>
<path fill="none" stroke="#000000" d="M147.3582,-180C158.7211,-180 171.8178,-180 183.1632,-180"/>
</g>
<!-- 1000 -->
<g id="node14" class="node">
<title>1000</title>
<ellipse fill="none" stroke="#000000" cx="119.3813" cy="-126" rx="27.589" ry="18"/>
<text text-anchor="middle" x="119.3813" y="-121.8" font-family="Times,serif" font-size="14.00" fill="#000000">1000</text>
</g>
<!-- 1000&#45;&gt;1100 -->
<g id="edge22" class="edge">
<title>1000&#45;&gt;1100</title>
<path fill="none" stroke="#000000" d="M135.848,-111.1286C139.7279,-107.3253 143.7329,-103.1372 147.175,-99 165.6231,-76.8264 164.7269,-67.1736 183.175,-45 186.7031,-40.7594 190.8227,-36.4652 194.7928,-32.5869"/>
</g>
<!-- 1000&#45;&gt;1001 -->
<g id="edge24" class="edge">
<title>1000&#45;&gt;1001</title>
<path fill="none" stroke="#000000" d="M135.848,-140.8714C139.7279,-144.6747 143.7329,-148.8628 147.175,-153 165.6231,-175.1736 164.7269,-184.8264 183.175,-207 186.6171,-211.1372 190.6221,-215.3253 194.5021,-219.1286"/>
</g>
<!-- 1000&#45;&gt;1010 -->
<g id="edge23" class="edge">
<title>1000&#45;&gt;1010</title>
<path fill="none" stroke="#000000" d="M140.1639,-138.2534C155.1527,-147.0909 175.2984,-158.9688 190.2684,-167.7951"/>
</g>
<!-- 0100 -->
<g id="node15" class="node">
<title>0100</title>
<ellipse fill="none" stroke="#000000" cx="119.3813" cy="-72" rx="27.589" ry="18"/>
<text text-anchor="middle" x="119.3813" y="-67.8" font-family="Times,serif" font-size="14.00" fill="#000000">0100</text>
</g>
<!-- 0100&#45;&gt;0110 -->
<g id="edge26" class="edge">
<title>0100&#45;&gt;0110</title>
<path fill="none" stroke="#000000" d="M147.3582,-72C158.8263,-72 172.0605,-72 183.4778,-72"/>
</g>
<!-- 0100&#45;&gt;1100 -->
<g id="edge25" class="edge">
<title>0100&#45;&gt;1100</title>
<path fill="none" stroke="#000000" d="M140.1639,-59.7466C155.1527,-50.9091 175.2984,-39.0312 190.2684,-30.2049"/>
</g>
<!-- 0100&#45;&gt;0101 -->
<g id="edge27" class="edge">
<title>0100&#45;&gt;0101</title>
<path fill="none" stroke="#000000" d="M140.1639,-84.2534C155.1527,-93.0909 175.2984,-104.9688 190.2684,-113.7951"/>
</g>
<!-- 0000 -->
<g id="node16" class="node">
<title>0000</title>
<ellipse fill="none" stroke="#000000" cx="27.7938" cy="-153" rx="27.589" ry="18"/>
<text text-anchor="middle" x="27.7938" y="-148.8" font-family="Times,serif" font-size="14.00" fill="#000000">0000</text>
</g>
<!-- 0000&#45;&gt;0001 -->
<g id="edge31" class="edge">
<title>0000&#45;&gt;0001</title>
<path fill="none" stroke="#000000" d="M44.5923,-167.8566C61.1176,-182.4717 86.2007,-204.6552 102.6892,-219.2375"/>
</g>
<!-- 0000&#45;&gt;0010 -->
<g id="edge30" class="edge">
<title>0000&#45;&gt;0010</title>
<path fill="none" stroke="#000000" d="M53.306,-160.521C66.0091,-164.2659 81.3215,-168.78 94.0058,-172.5193"/>
</g>
<!-- 0000&#45;&gt;1000 -->
<g id="edge28" class="edge">
<title>0000&#45;&gt;1000</title>
<path fill="none" stroke="#000000" d="M53.306,-145.479C66.0091,-141.7341 81.3215,-137.22 94.0058,-133.4807"/>
</g>
<!-- 0000&#45;&gt;0100 -->
<g id="edge29" class="edge">
<title>0000&#45;&gt;0100</title>
<path fill="none" stroke="#000000" d="M44.5923,-138.1434C61.1176,-123.5283 86.2007,-101.3448 102.6892,-86.7625"/>
</g>
</g>
</svg>
